<svg xmlns="http://www.w3.org/2000/svg" viewBox="0 0 1490 1490"><path fill="#DB214C" d="M1490 1286.3L1286.3 0 0 203.7 203.7 1490z"/><path fill="#FFFFFF" d="M196.2 951.8h79l57 151.5h.8l57.4-151.5h73.2l-91.7 212.7H288l-91.8-212.7zm341.4 127.8h147.3v-13.5c0-63.3-28.6-119.2-107.6-119.2-66.3 0-114.1 40.8-114.1 111.1 0 70.2 53.6 111.5 124 111.5 27.4 0 54.4-4.1 78.1-13.5v-51.9c-22.1 11.8-45 16.3-65 16.3-36.1.1-58.6-11.4-62.7-40.8zm-.8-41.6c1.6-24.5 14.3-44.5 40.9-44.5 29.5 0 40.9 20 40.9 44.5h-81.8zm338.7-27.4l3.7-61.2c-7.4-1.2-16.4-2.5-25-2.5-31.9 0-50.3 17.1-63 44.1h-.8v-39.2h-67.1v212.7h73.6v-89.8c0-41.6 19.2-66.6 53.6-66.6 8.6.1 16.8.1 25 2.5zm346.1 154V858.3h-74v120.9h-.8c-18.8-24.5-43.8-32.3-73.2-32.3-58.9 0-91.2 55.1-91.2 107.4 0 62.9 34 115.1 97.4 115.1 34 0 63.8-19.2 73.2-42.9h.8v38l67.8.1zM1058.3 1056c0-28.2 16-52.7 44.6-52.7 27 0 45 23.3 45 55.5 0 31-20.5 54.3-45 54.3-27.8 0-44.6-23.3-44.6-57.1zm211.7 108.6h73.6V951.8H1270v212.8zm73.7-301.4H1270v53.9h73.6v-53.9z"/><path fill="#1F1A17" d="M955.6 1168.7l-13.4-84.8-84.9 13.4 13.5 84.8z"/></svg>